<svg xmlns="http://www.w3.org/2000/svg" viewBox="0 0 256 256" width="256" height="256">
  <defs>
    <linearGradient id="bg" x1="0%" y1="0%" x2="100%" y2="100%">
      <stop offset="0%" style="stop-color:#66BB6A"/>
      <stop offset="100%" style="stop-color:#4CAF50"/>
    </linearGradient>
  </defs>
  <circle cx="128" cy="128" r="120" fill="url(#bg)"/>
  <rect x="118" y="40" width="20" height="180" fill="#2E7D32" rx="3"/>
  <polygon points="128,50 80,100 128,90" fill="#43A047"/>
  <polygon points="128,50 176,100 128,90" fill="#388E3C"/>
  <polygon points="128,80 70,140 128,130" fill="#43A047"/>
  <polygon points="128,80 186,140 128,130" fill="#388E3C"/>
  <polygon points="128,110 85,170 128,160" fill="#43A047"/>
  <polygon points="128,110 171,170 128,160" fill="#388E3C"/>
  <line x1="115" y1="25" x2="115" y2="55" stroke="#1B5E20" stroke-width="4"/>
  <line x1="120" y1="25" x2="120" y2="55" stroke="#2E7D32" stroke-width="4"/>
  <line x1="125" y1="25" x2="125" y2="55" stroke="#388E3C" stroke-width="4"/>
  <line x1="130" y1="25" x2="130" y2="55" stroke="#43A047" stroke-width="4"/>
  <line x1="135" y1="25" x2="135" y2="55" stroke="#388E3C" stroke-width="4"/>
  <line x1="140" y1="25" x2="140" y2="55" stroke="#2E7D32" stroke-width="4"/>
  <line x1="145" y1="25" x2="145" y2="55" stroke="#1B5E20" stroke-width="4"/>
  <text x="128" y="240" text-anchor="middle" font-family="Arial" font-size="20" fill="white" font-weight="bold">K</text>
</svg>
